<svg xmlns="http://www.w3.org/2000/svg" width="46" height="46">
  <path fill="#EA4335" d="M23 9.5c3.32 0 5.57 1.44 6.85 2.65l5-4.85C31.43 3.57 27.62 2 23 2 13.96 2 6.62 7.7 4 15.35l5.92 4.6C11.59 13.64 16.77 9.5 23 9.5z"/>
  <path fill="#4285F4" d="M46 23.5c0-1.55-.14-2.76-.45-3.95H23v7.49h13.35c-.27 1.79-1.74 4.48-5.01 6.28l5.85 4.52C42.84 33.21 46 28.02 46 23.5z"/>
  <path fill="#FBBC04" d="M28.69 33.32C26.98 34.41 24.55 35 22 35c-5.41 0-10.03-3.59-11.68-8.53L4.3 30.78C7.46 37.79 14.34 43 22 43c5.62 0 10.33-1.86 13.77-5.06l-7.08-4.62z"/>
  <path fill="#34A853" d="M10.32 26.47C9.93 25.28 9.7 24.01 9.7 22.65c0-1.36.23-2.62.6-3.82l-5.9-4.58C2.62 16.79 1 19.64 1 22.65c0 3.01 1.62 5.86 3.41 8.4l5.91-4.58z"/>
</svg>
